Normalized EMG Linear Envelopes
nRows=43
nColumns=17

endheader
time	        VM	        VL	        RF	       GRA	        TA	   ADDLONG	   SEMIMEM	      BFLH	        GM	        GL	       TFL	   GLUTMAX	   GLUTMED	      PIRI	    OBTINT	        QF	
2.985	  0.226591	  0.236353	  0.034613	  0.380806	  0.628430	  0.000000	  0.750234	  0.538898	  0.000000	  0.204462	  0.000000	  0.339840	  0.414172	  0.213379	  0.062350	  0.053565	
2.9855	  0.229551	  0.239797	  0.035152	  0.381084	  0.630779	  0.000000	  0.750224	  0.541159	  0.000000	  0.206659	  0.000000	  0.341634	  0.415883	  0.213819	  0.061956	  0.053637	
2.986	  0.232551	  0.243293	  0.035700	  0.381375	  0.633041	  0.000000	  0.750201	  0.543421	  0.000000	  0.208857	  0.000000	  0.343455	  0.417547	  0.214263	  0.061570	  0.053712	
2.9865	  0.235591	  0.246841	  0.036260	  0.381680	  0.635214	  0.000000	  0.750165	  0.545683	  0.000000	  0.211057	  0.000000	  0.345304	  0.419163	  0.214711	  0.061192	  0.053792	
2.987	  0.238670	  0.250442	  0.036830	  0.381997	  0.637301	  0.000000	  0.750115	  0.547943	  0.000000	  0.213257	  0.000000	  0.347182	  0.420728	  0.215166	  0.060823	  0.053875	
2.9875	  0.241788	  0.254095	  0.037411	  0.382324	  0.639300	  0.000000	  0.750051	  0.550201	  0.000000	  0.215457	  0.000000	  0.349089	  0.422240	  0.215625	  0.060463	  0.053962	
2.988	  0.244945	  0.257802	  0.038003	  0.382661	  0.641211	  0.000000	  0.749972	  0.552455	  0.000000	  0.217657	  0.000000	  0.351024	  0.423698	  0.216091	  0.060111	  0.054054	
2.9885	  0.248139	  0.261562	  0.038606	  0.383006	  0.643035	  0.000000	  0.749877	  0.554704	  0.000000	  0.219855	  0.000000	  0.352989	  0.425099	  0.216564	  0.059768	  0.054150	
2.989	  0.251370	  0.265376	  0.039221	  0.383358	  0.644771	  0.000000	  0.749765	  0.556947	  0.000000	  0.222051	  0.000000	  0.354983	  0.426441	  0.217043	  0.059433	  0.054251	
2.9895	  0.254639	  0.269245	  0.039847	  0.383714	  0.646419	  0.000000	  0.749636	  0.559184	  0.000000	  0.224244	  0.000000	  0.357008	  0.427723	  0.217529	  0.059107	  0.054356	
2.99	  0.257944	  0.273169	  0.040486	  0.384074	  0.647979	  0.000000	  0.749490	  0.561414	  0.000000	  0.226433	  0.000000	  0.359064	  0.428945	  0.218023	  0.058790	  0.054466	
2.9905	  0.261286	  0.277148	  0.041136	  0.384437	  0.649450	  0.000000	  0.749324	  0.563634	  0.000000	  0.228618	  0.000000	  0.361151	  0.430106	  0.218523	  0.058481	  0.054582	
2.991	  0.264664	  0.281184	  0.041798	  0.384800	  0.650832	  0.000000	  0.749139	  0.565845	  0.000000	  0.230797	  0.000000	  0.363270	  0.431205	  0.219032	  0.058181	  0.054702	
2.9915	  0.268079	  0.285276	  0.042472	  0.385162	  0.652126	  0.000000	  0.748934	  0.568045	  0.000000	  0.232970	  0.000000	  0.365421	  0.432241	  0.219548	  0.057889	  0.054827	
2.992	  0.271531	  0.289426	  0.043159	  0.385522	  0.653331	  0.000000	  0.748707	  0.570231	  0.000000	  0.235136	  0.000000	  0.367605	  0.433214	  0.220071	  0.057606	  0.054958	
2.9925	  0.275020	  0.293633	  0.043859	  0.385877	  0.654448	  0.000000	  0.748457	  0.572405	  0.000000	  0.237295	  0.000000	  0.369822	  0.434123	  0.220602	  0.057331	  0.055094	
2.993	  0.278545	  0.297898	  0.044572	  0.386228	  0.655476	  0.000000	  0.748184	  0.574563	  0.000000	  0.239445	  0.000000	  0.372073	  0.434966	  0.221140	  0.057065	  0.055235	
2.9935	  0.282108	  0.302222	  0.045298	  0.386570	  0.656415	  0.000000	  0.747886	  0.576704	  0.000000	  0.241586	  0.000000	  0.374358	  0.435743	  0.221686	  0.056808	  0.055382	
2.994	  0.285708	  0.306605	  0.046038	  0.386905	  0.657266	  0.000000	  0.747563	  0.578827	  0.000000	  0.243718	  0.000000	  0.376678	  0.436453	  0.222238	  0.056559	  0.055534	
2.9945	  0.289345	  0.311047	  0.046792	  0.387228	  0.658028	  0.000000	  0.747213	  0.580931	  0.000000	  0.245838	  0.000000	  0.379033	  0.437096	  0.222798	  0.056319	  0.055692	
2.995	  0.293020	  0.315549	  0.047560	  0.387540	  0.658700	  0.000000	  0.746835	  0.583014	  0.000000	  0.247948	  0.000000	  0.381424	  0.437669	  0.223364	  0.056087	  0.055855	
2.9955	  0.296733	  0.320111	  0.048342	  0.387837	  0.659284	  0.000000	  0.746428	  0.585074	  0.000000	  0.250045	  0.000000	  0.383851	  0.438174	  0.223937	  0.055864	  0.056024	
2.996	  0.300482	  0.324734	  0.049139	  0.388120	  0.659779	  0.000000	  0.745991	  0.587111	  0.000000	  0.252129	  0.000000	  0.386314	  0.438609	  0.224516	  0.055648	  0.056198	
2.9965	  0.304270	  0.329418	  0.049951	  0.388386	  0.660184	  0.000000	  0.745522	  0.589122	  0.000000	  0.254199	  0.000000	  0.388812	  0.438974	  0.225101	  0.055442	  0.056378	
2.997	  0.308094	  0.334163	  0.050778	  0.388635	  0.660500	  0.000000	  0.745020	  0.591107	  0.000000	  0.256255	  0.000000	  0.391347	  0.439268	  0.225691	  0.055243	  0.056563	
2.9975	  0.311955	  0.338968	  0.051620	  0.388866	  0.660726	  0.000000	  0.744483	  0.593065	  0.000000	  0.258297	  0.000000	  0.393918	  0.439492	  0.226287	  0.055052	  0.056753	
2.998	  0.315854	  0.343836	  0.052478	  0.389076	  0.660863	  0.000000	  0.743909	  0.594993	  0.000000	  0.260322	  0.000000	  0.396524	  0.439646	  0.226888	  0.054870	  0.056949	
2.9985	  0.319789	  0.348764	  0.053352	  0.389266	  0.660911	  0.000000	  0.743298	  0.596891	  0.000000	  0.262332	  0.000000	  0.399165	  0.439729	  0.227494	  0.054695	  0.057150	
2.999	  0.323760	  0.353753	  0.054241	  0.389435	  0.660870	  0.000000	  0.742646	  0.598757	  0.000000	  0.264326	  0.000000	  0.401840	  0.439742	  0.228105	  0.054529	  0.057356	
2.9995	  0.327767	  0.358804	  0.055147	  0.389582	  0.660741	  0.000000	  0.741953	  0.600591	  0.000000	  0.266303	  0.000000	  0.404550	  0.439684	  0.228721	  0.054370	  0.057568	
3	  0.331810	  0.363916	  0.056070	  0.389706	  0.660523	  0.000000	  0.741218	  0.602392	  0.000000	  0.268264	  0.000000	  0.407294	  0.439556	  0.229341	  0.054219	  0.057785	
3.0005	  0.335889	  0.369089	  0.057009	  0.389807	  0.660216	  0.000000	  0.740439	  0.604159	  0.000000	  0.270207	  0.000000	  0.410070	  0.439357	  0.229967	  0.054075	  0.058006	
3.001	  0.340003	  0.374322	  0.057965	  0.389883	  0.659819	  0.000000	  0.739615	  0.605890	  0.000000	  0.272133	  0.000000	  0.412878	  0.439088	  0.230597	  0.053939	  0.058233	
3.0015	  0.344152	  0.379616	  0.058939	  0.389935	  0.659334	  0.000000	  0.738745	  0.607586	  0.000000	  0.274041	  0.000000	  0.415717	  0.438748	  0.231231	  0.053811	  0.058464	
3.002	  0.348335	  0.384971	  0.059930	  0.389960	  0.658759	  0.000000	  0.737828	  0.609246	  0.000000	  0.275931	  0.000000	  0.418587	  0.438336	  0.231870	  0.053690	  0.058700	
3.0025	  0.352552	  0.390386	  0.060938	  0.389959	  0.658095	  0.000000	  0.736862	  0.610870	  0.000000	  0.277803	  0.000000	  0.421487	  0.437853	  0.232512	  0.053576	  0.058941	
3.003	  0.356803	  0.395862	  0.061964	  0.389930	  0.657341	  0.000000	  0.735846	  0.612456	  0.000000	  0.279658	  0.000000	  0.424416	  0.437298	  0.233159	  0.053470	  0.059187	
3.0035	  0.361087	  0.401399	  0.063008	  0.389872	  0.656499	  0.000000	  0.734780	  0.614006	  0.000000	  0.281496	  0.000000	  0.427373	  0.436672	  0.233809	  0.053372	  0.059437	
3.004	  0.365404	  0.406996	  0.064070	  0.389785	  0.655568	  0.000000	  0.733662	  0.615517	  0.000000	  0.283317	  0.000000	  0.430360	  0.435973	  0.234462	  0.053280	  0.059691	
3.0045	  0.369753	  0.412653	  0.065151	  0.389667	  0.654549	  0.000000	  0.732492	  0.616991	  0.000000	  0.285122	  0.000000	  0.433374	  0.435202	  0.235118	  0.053196	  0.059950	
3.005	  0.374134	  0.418370	  0.066250	  0.389518	  0.653443	  0.000000	  0.731268	  0.618426	  0.000000	  0.286912	  0.000000	  0.436415	  0.434361	  0.235777	  0.053118	  0.060213	
3.0055	  0.378547	  0.424146	  0.067368	  0.389336	  0.652249	  0.000000	  0.729990	  0.619821	  0.000000	  0.288687	  0.000000	  0.439483	  0.433448	  0.236438	  0.053048	  0.060480	
3.006	  0.382991	  0.429981	  0.068505	  0.389122	  0.650968	  0.000000	  0.728658	  0.621176	  0.000000	  0.290448	  0.000000	  0.442577	  0.432465	  0.237101	  0.052985	  0.060752	
